# xmcd
#
# Track frame offsets:
#	150
#	17549
#	32840
#	51074
#	64796
#	84564
#	98082
#	110356
#	126276
#	140082
#	154858
#	170143
#	186284
#	199929
#	218296
#	238924
#	253527
#	271052
#	287387
#	304289
#
# Disc length: 4233 seconds
#
# Revision: 0
# Processed by: cddbd v1.5.2PL0 Copyright (c) Steve Scherf et al.
# Submitted via: dBpowerAMP V4.0
#
DISCID=1d108714
DTITLE=Fernando e Sorocaba - As 20 +
DYEAR=2009
DGENRE=Country
TTITLE0=Bala de prata
TTITLE1=Paga pau
TTITLE2=Vem ficar do meu lado
TTITLE3=Da cor do pecado
TTITLE4=Volta lá pro seu lugar
TTITLE5=Força de um furacão
TTITLE6=Chevetão
TTITLE7=juliana
TTITLE8=vitimas do amor
TTITLE9=vendaval
TTITLE10=ah! como eu amo voce
TTITLE11=um quadro
TTITLE12=estrela solitaria
TTITLE13=consequencias de te amar
TTITLE14=companheiro
TTITLE15=o mundo avisou
TTITLE16=o brilho no olhar
TTITLE17=você é mais
TTITLE18=100%você
TTITLE19=livre pro amor
EXTD=
EXTT0=
EXTT1=
EXTT2=
EXTT3=
EXTT4=
EXTT5=
EXTT6=
EXTT7=
EXTT8=
EXTT9=
EXTT10=
EXTT11=
EXTT12=
EXTT13=
EXTT14=
EXTT15=
EXTT16=
EXTT17=
EXTT18=
EXTT19=
PLAYORDER=
